<svg width="17" height="17" viewBox="0 0 17 17" fill="none" xmlns="http://www.w3.org/2000/svg">
<path d="M8.77017 0.797363C4.35017 0.797363 0.770172 4.37736 0.770172 8.79736C0.770172 12.3374 3.06017 15.3274 6.24017 16.3874C6.64017 16.4574 6.79017 16.2174 6.79017 16.0074C6.79017 15.8174 6.78017 15.1874 6.78017 14.5174C4.77017 14.8874 4.25017 14.0274 4.09017 13.5774C4.00017 13.3474 3.61017 12.6374 3.27017 12.4474C2.99017 12.2974 2.59017 11.9274 3.26017 11.9174C3.89017 11.9074 4.34017 12.4974 4.49017 12.7374C5.21017 13.9474 6.36017 13.6074 6.82017 13.3974C6.89017 12.8774 7.10017 12.5274 7.33017 12.3274C5.55017 12.1274 3.69017 11.4374 3.69017 8.37736C3.69017 7.50736 4.00017 6.78736 4.51017 6.22736C4.43017 6.02736 4.15017 5.20736 4.59017 4.10736C4.59017 4.10736 5.26017 3.89736 6.79017 4.92736C7.43017 4.74736 8.11017 4.65736 8.79017 4.65736C9.47017 4.65736 10.1502 4.74736 10.7902 4.92736C12.3202 3.88736 12.9902 4.10736 12.9902 4.10736C13.4302 5.20736 13.1502 6.02736 13.0702 6.22736C13.5802 6.78736 13.8902 7.49736 13.8902 8.37736C13.8902 11.4474 12.0202 12.1274 10.2402 12.3274C10.5302 12.5774 10.7802 13.0574 10.7802 13.8074C10.7802 14.8774 10.7702 15.7374 10.7702 16.0074C10.7702 16.2174 10.9202 16.4674 11.3202 16.3874C12.9084 15.8514 14.2885 14.8307 15.2662 13.4691C16.2439 12.1075 16.7699 10.4736 16.7702 8.79736C16.7702 4.37736 13.1902 0.797363 8.77017 0.797363Z" fill="white"/>
</svg>
