<svg width="17" height="17" viewBox="0 0 17 17" fill="none" xmlns="http://www.w3.org/2000/svg">
<path d="M0.270172 1.94336C0.270172 1.31036 0.796172 0.797363 1.44517 0.797363H15.0952C15.7442 0.797363 16.2702 1.31036 16.2702 1.94336V15.6514C16.2702 16.2844 15.7442 16.7974 15.0952 16.7974H1.44517C0.796172 16.7974 0.270172 16.2844 0.270172 15.6514V1.94336ZM5.21317 14.1914V6.96636H2.81217V14.1914H5.21317ZM4.01317 5.97936C4.85017 5.97936 5.37117 5.42536 5.37117 4.73136C5.35617 4.02236 4.85117 3.48336 4.02917 3.48336C3.20717 3.48336 2.67017 4.02336 2.67017 4.73136C2.67017 5.42536 3.19117 5.97936 3.99717 5.97936H4.01317ZM8.92117 14.1914V10.1564C8.92117 9.94036 8.93717 9.72436 9.00117 9.57036C9.17417 9.13936 9.56917 8.69236 10.2332 8.69236C11.1022 8.69236 11.4492 9.35436 11.4492 10.3264V14.1914H13.8502V10.0474C13.8502 7.82736 12.6662 6.79536 11.0862 6.79536C9.81217 6.79536 9.24117 7.49536 8.92117 7.98836V8.01336H8.90517C8.91048 8.00502 8.91582 7.99668 8.92117 7.98836V6.96636H6.52117C6.55117 7.64436 6.52117 14.1914 6.52117 14.1914H8.92117Z" fill="white"/>
</svg>
